<svg width="135" height="597" viewBox="0 0 135 597" fill="none" xmlns="http://www.w3.org/2000/svg">
<path d="M86.7677 93.8926C90.285 79.8507 89.7826 83.0911 92.7974 76.6102C95.8122 70.1294 105.359 64.1885 108.374 61.4882C110.786 59.3279 111.724 54.4672 111.891 52.3069" stroke="#37302A"/>
<path d="M12 600C10.1576 586.858 24.5 569.064 24.5 542.5C24.5 508.5 23.0716 478.5 22.2858 455.5C21.5 432.5 24.4673 396.933 30 366C39.7817 311.312 43.0527 289.399 36.0181 257.535C28.9836 225.67 18.9341 175.984 18.9341 151.68C18.9341 127.377 25.4662 114.415 51.5947 80.9308C77.7232 47.4463 112.896 49.6066 125.96 1" stroke="#37302A" stroke-width="2"/>
<path d="M34.0083 247.813C32.5009 230.531 28.4811 202.949 47.575 184.625C61.6442 171.123 65.1615 174.903 72.6985 147.36C80.2356 119.816 89.7826 107.934 100.334 101.994C110.886 96.0528 119.931 96.0528 134 79.8506" stroke="#37302A" stroke-width="2"/>
<path d="M62.6491 171.123C84.7578 158.161 78.2257 151.68 96.8171 151.68" stroke="#37302A"/>
<path d="M79.2307 128.997C82.748 107.934 92.7974 87.4117 82.748 72.8297" stroke="#37302A"/>
<path d="M27.9786 114.955C38.028 72.2896 33.1598 54.0509 27.9786 42.5856C19.4366 23.6831 4.36249 30.704 11.8996 12.3416" stroke="#37302A" stroke-width="2"/>
<path d="M37.5256 199.207C43.5552 186.785 42.5503 188.945 44.5602 181.924C45.9361 177.118 46.3701 173.324 45.8621 169.503M43.5552 125.757C45.8621 134.398 41.7966 138.719 38.5305 145.74C35.0132 153.301 42.5503 158.161 44.5602 164.102C45.1941 165.976 45.6281 167.742 45.8621 169.503M45.8621 169.503C47.0725 160.321 47.575 156.001 49.5849 153.301C51.5948 150.6 47.0725 146.82 49.5849 141.959" stroke="#37302A"/>
<path d="M37.5256 150.6C34.5107 141.419 36.5206 144.119 33.0033 138.719C30.1895 134.398 26.8062 132.598 25.4663 132.238" stroke="#37302A"/>
<path d="M49.0824 154.381C49.9199 152.76 52.1977 149.52 54.6096 149.52C57.6244 149.52 58.1269 147.36 59.6343 146.28C61.1417 145.199 61.6442 140.879 65.1615 139.259" stroke="#37302A"/>
<path d="M53.1022 79.3106C59.1318 63.1084 53.1022 60.408 53.1022 56.0874C53.1022 51.7669 51.5948 50.1466 53.1022 46.9062C54.6096 43.6658 57.1219 40.4253 57.1219 36.1047" stroke="#37302A"/>
<path d="M52.0972 49.0665C50.0874 43.1257 51.0923 44.2058 48.0775 40.9654" stroke="#37302A"/>
<path d="M55.6145 64.7285C56.6195 60.948 55.1121 58.7877 56.6195 56.0874C58.1269 53.387 56.117 52.8469 60.6392 49.0664C62.4569 47.5469 65.4402 43.352 67.1714 43.1257M86.7677 36.6448C78.7282 36.6448 82.2455 43.1257 71.1911 43.3855C70.3578 43.1168 68.8858 42.9015 67.1714 43.1257M67.1714 43.1257C71.6936 41.7653 73.201 38.8051 72.1961 35.5646M57.1219 56.0874C59.6343 54.4671 60.1368 52.8469 62.6491 52.8469M62.6491 52.8469C65.1615 52.8469 66.6689 50.6866 66.6689 50.1465M62.6491 52.8469C64.257 52.8469 66.3339 53.567 67.1714 53.927" stroke="#37302A"/>
<path d="M96.8171 104.154C97.8221 103.074 102.847 99.8333 102.847 94.9727M102.847 94.9727C102.847 90.112 101.842 91.1922 102.847 86.8716C103.852 82.551 106.867 81.4709 106.364 77.1503M102.847 94.9727C106.364 91.1922 104.857 90.112 106.364 89.0319C107.872 87.9517 108.876 87.9517 109.881 85.7914" stroke="#37302A"/>
<path d="M19.9391 138.719C15.4169 116.576 15.4169 129.537 13.9094 112.255C13.3862 106.256 12.8629 102.469 12.2765 99.8333M7.87979 90.112C9.84805 93.9905 11.1738 94.8765 12.2765 99.8333M12.2765 99.8333C12.9045 90.112 15.5424 92.8124 13.9094 82.551C12.2765 72.2896 9.1362 71.2094 12.2765 65.8087" stroke="#37302A"/>
</svg>
